<?xml version="1.0" standalone="no"?>
<!DOCTYPE svg PUBLIC "-//W3C//DTD SVG 20010904//EN"
 "http://www.w3.org/TR/2001/REC-SVG-20010904/DTD/svg10.dtd">
<svg version="1.0" xmlns="http://www.w3.org/2000/svg"
 width="501.000000pt" height="500.000000pt" viewBox="0 0 501.000000 500.000000"
 preserveAspectRatio="xMidYMid meet">

<g transform="translate(0.000000,500.000000) scale(0.100000,-0.100000)"
fill="#00BFDE" stroke="none">
<path d="M2420 4981 c-14 -5 -40 -16 -58 -25 -52 -27 -2276 -1810 -2301 -1844
-39 -55 -54 -104 -54 -177 0 -91 29 -159 93 -219 58 -54 104 -75 185 -83 72
-7 125 -34 151 -76 18 -31 19 -73 24 -1182 l5 -1150 27 -51 c15 -28 48 -70 73
-92 89 -78 -71 -72 1930 -72 1999 0 1841 -6 1929 71 25 22 57 65 73 97 l28 57
5 1150 c5 1109 6 1151 24 1178 27 40 80 63 157 69 81 7 145 34 196 85 117 117
119 315 5 426 -20 19 -538 436 -1151 926 -1201 961 -1148 922 -1265 920 -28 0
-62 -4 -76 -8z m164 -166 c108 -73 2231 -1782 2247 -1809 37 -60 13 -161 -47
-201 -16 -10 -61 -21 -108 -27 -131 -14 -215 -69 -267 -174 l-24 -49 -5 -1152
c-5 -1143 -5 -1152 -26 -1180 -11 -15 -40 -38 -64 -50 l-44 -23 -873 0 -873 0
0 265 0 266 -25 24 -24 25 -271 0 -270 0 0 215 c0 216 0 216 -25 240 l-24 25
-296 0 -295 0 0 250 c0 237 -1 251 -20 270 -19 19 -33 20 -330 20 l-309 0 -3
398 -3 397 -26 56 c-49 104 -137 165 -256 176 -131 12 -206 115 -158 217 14
29 252 224 1134 929 614 492 1125 899 1136 905 37 21 109 14 149 -13z m-1464
-3450 c0 -246 6 -284 45 -299 9 -3 147 -6 306 -6 l289 0 0 -215 c0 -216 0
-216 25 -240 l24 -25 271 0 270 0 0 -210 0 -210 -787 -1 c-434 -1 -801 0 -818
1 -39 2 -82 28 -109 63 -21 28 -21 35 -24 703 l-2 674 255 0 255 0 0 -235z"/>
<path d="M3396 2389 l-26 -20 0 -655 c0 -360 -4 -654 -8 -654 -4 0 -61 76
-125 170 -145 209 -164 224 -221 179 -51 -40 -41 -62 142 -325 238 -342 236
-340 268 -348 39 -10 65 12 138 119 35 50 122 176 194 280 145 209 155 235
106 274 -57 45 -75 31 -220 -179 -64 -94 -121 -170 -126 -170 -4 0 -8 294 -8
653 0 358 -4 657 -8 663 -9 14 -47 34 -65 34 -8 0 -26 -9 -41 -21z"/>
</g>
</svg>
