<svg version="1.0" xmlns="http://www.w3.org/2000/svg"
 width="256.000000pt" height="182.000000pt" viewBox="0 0 256.000000 182.000000"
 preserveAspectRatio="xMidYMid meet">

<g transform="translate(0.000000,182.000000) scale(0.100000,-0.100000)"
fill="#00BFDE" stroke="none">
<path d="M105 1796 c-66 -29 -104 -105 -92 -182 7 -42 49 -101 83 -116 l24
-11 0 -593 0 -592 -35 -21 c-48 -28 -75 -76 -75 -134 0 -42 5 -53 38 -89 33
-35 46 -41 88 -45 83 -8 144 38 159 120 10 51 -25 123 -71 145 l-34 16 0 593
0 593 130 0 130 0 0 -627 c0 -605 1 -629 20 -660 40 -67 -13 -64 960 -61 l880
3 32 33 33 32 5 637 5 636 46 13 c135 40 161 212 45 298 -27 21 -33 21 -1184
23 -947 2 -1163 0 -1187 -11z m125 -71 c41 -21 56 -73 35 -118 -30 -63 -107
-77 -156 -28 -81 82 17 200 121 146z m2207 -4 c37 -23 51 -68 33 -112 -26 -62
30 -59 -1106 -59 l-1036 0 6 23 c17 54 17 94 3 130 l-16 37 1042 0 c1011 0
1043 -1 1074 -19z m-1509 -328 l3 -83 -186 0 c-224 0 -225 1 -225 105 l0 65
203 -2 202 -3 3 -82z m902 2 l0 -85 -415 0 -415 0 0 78 c0 43 3 82 7 85 3 4
190 7 415 7 l408 0 0 -85z m480 17 c0 -104 2 -103 -221 -100 l-184 3 -3 69
c-2 38 -1 75 2 83 4 10 47 13 206 13 l200 0 0 -68z m-1569 -172 l190 0 -3 -57
-3 -58 -165 -3 c-91 -1 -175 0 -187 3 -37 9 -53 33 -53 82 0 37 3 44 16 39 9
-3 101 -6 205 -6z m1572 -41 c-4 -76 -15 -80 -227 -77 l-181 3 0 55 0 55 195
5 c107 3 200 5 205 4 6 0 9 -21 8 -45z m-483 -19 l0 -60 -412 2 -413 3 -3 58
-3 57 416 0 415 0 0 -60z m-1082 -130 l182 0 0 -55 0 -55 -185 0 c-172 0 -186
1 -205 20 -14 14 -20 33 -20 61 0 38 2 41 23 35 12 -3 104 -6 205 -6z m1562
-34 c0 -72 -12 -76 -222 -76 l-178 0 0 55 0 55 188 3 c103 1 193 3 200 5 8 1
12 -12 12 -42z m-480 -21 l0 -55 -415 0 -415 0 0 55 0 55 415 0 415 0 0 -55z
m-1089 -125 l190 0 -3 -57 -3 -58 -165 -3 c-91 -1 -175 0 -187 3 -37 9 -53 33
-53 82 0 37 3 44 16 39 9 -3 101 -6 205 -6z m1573 -40 c-1 -32 -7 -48 -24 -62
-21 -17 -40 -18 -204 -16 l-181 3 0 55 0 55 195 5 c107 3 200 5 205 4 6 0 10
-20 9 -44z m-484 -20 l0 -60 -412 2 -413 3 -3 58 -3 57 416 0 415 0 0 -60z
m-1074 -130 l174 0 0 -55 0 -55 -187 0 c-216 0 -223 2 -223 78 l0 45 31 -7
c17 -3 110 -6 205 -6z m1554 -32 c0 -76 -6 -78 -222 -78 l-188 0 0 55 0 55
188 3 c103 1 195 3 205 5 14 2 17 -6 17 -40z m-480 -23 l0 -55 -415 0 -415 0
0 55 0 55 415 0 415 0 0 -55z m-1089 -125 l190 0 -3 -57 -3 -58 -165 -3 c-91
-1 -175 0 -187 3 -37 9 -53 33 -53 82 0 37 3 44 16 39 9 -3 101 -6 205 -6z
m1573 -40 c-1 -32 -7 -48 -24 -62 -21 -17 -40 -18 -204 -16 l-181 3 0 55 0 55
195 5 c107 3 200 5 205 4 6 0 10 -20 9 -44z m-484 -20 l0 -60 -415 0 -415 0 0
60 0 60 415 0 415 0 0 -60z m-1082 -130 l182 0 0 -55 0 -55 -185 0 c-172 0
-186 1 -205 20 -14 14 -20 33 -20 61 0 38 2 41 23 35 12 -3 104 -6 205 -6z
m1562 -34 c0 -72 -12 -76 -222 -76 l-178 0 0 55 0 55 188 3 c103 1 193 3 200
5 8 1 12 -12 12 -42z m-480 -21 l0 -55 -415 0 -415 0 0 55 0 55 415 0 415 0 0
-55z m-1645 -31 c18 -7 45 -55 45 -79 0 -27 -46 -65 -80 -65 -67 0 -97 88 -44
129 27 22 50 26 79 15z"/>
</g>
</svg>
