<?xml version="1.0" standalone="no"?>
<!DOCTYPE svg PUBLIC "-//W3C//DTD SVG 20010904//EN"
 "http://www.w3.org/TR/2001/REC-SVG-20010904/DTD/svg10.dtd">
<svg version="1.0" xmlns="http://www.w3.org/2000/svg"
 width="413.000000pt" height="454.000000pt" viewBox="0 0 413.000000 454.000000"
 preserveAspectRatio="xMidYMid meet">

<g transform="translate(0.000000,454.000000) scale(0.100000,-0.100000)"
fill="#00BFDE" stroke="none">
<path d="M203 4506 c-88 -28 -152 -90 -181 -175 -8 -23 -12 -143 -12 -377 l0
-344 23 -14 c19 -13 274 -15 2035 -13 2001 2 2014 2 2028 22 13 17 15 74 12
365 l-3 345 -27 50 c-33 63 -70 98 -133 127 l-50 23 -1825 2 c-1482 1 -1833
-1 -1867 -11z m3704 -118 c18 -10 45 -34 60 -55 l28 -36 3 -299 3 -298 -333
-1 c-183 0 -763 0 -1288 0 -525 0 -1249 1 -1607 1 l-653 0 0 298 0 299 29 40
c27 37 56 55 106 66 11 3 830 4 1820 3 1693 -1 1802 -2 1832 -18z"/>
<path d="M1970 4274 c-101 -44 -155 -130 -148 -239 17 -266 389 -306 463 -50
28 94 1 183 -75 247 -66 57 -166 74 -240 42z m171 -130 c16 -15 34 -45 41 -65
9 -31 8 -43 -8 -75 -21 -44 -75 -84 -111 -84 -69 0 -133 61 -133 128 0 112
132 172 211 96z"/>
<path d="M447 4212 c-21 -23 -22 -56 -1 -76 13 -14 51 -16 259 -16 264 0 275
2 275 55 0 53 -11 55 -274 55 -223 0 -244 -2 -259 -18z"/>
<path d="M3147 4212 c-22 -24 -21 -55 1 -75 16 -15 49 -17 256 -17 144 0 245
4 257 10 13 7 19 21 19 45 0 24 -6 38 -19 45 -12 6 -113 10 -259 10 -219 0
-240 -2 -255 -18z"/>
<path d="M446 3964 c-21 -21 -20 -57 2 -77 16 -15 49 -17 259 -17 220 0 241 2
256 18 23 25 22 69 -2 82 -12 6 -113 10 -260 10 -204 0 -242 -2 -255 -16z"/>
<path d="M3147 3962 c-23 -26 -21 -58 5 -76 19 -13 61 -16 256 -16 142 0 241
4 253 10 22 12 27 68 7 88 -9 9 -80 12 -258 12 -227 0 -248 -2 -263 -18z"/>
<path d="M22 3448 c-9 -9 -12 -381 -12 -1612 l0 -1601 24 -50 c29 -60 76 -107
136 -134 45 -20 56 -21 1876 -21 1980 0 1883 -3 1955 53 19 14 50 52 69 83
l35 58 3 1595 c2 1419 1 1597 -13 1618 -20 29 -70 32 -85 4 -7 -13 -10 -528
-10 -1593 0 -1512 -1 -1575 -19 -1614 -10 -23 -34 -52 -52 -65 l-34 -24 -1828
-3 -1829 -2 -38 21 c-21 12 -47 39 -59 60 l-22 38 1 1578 c0 1421 -1 1580 -15
1601 -18 24 -63 30 -83 10z"/>
<path d="M627 3316 c-90 -33 -163 -108 -187 -196 -6 -22 -10 -495 -10 -1277 0
-1224 0 -1243 20 -1297 23 -60 92 -133 156 -163 37 -17 112 -18 1419 -21 965
-2 1396 1 1432 9 116 23 202 116 222 236 8 48 11 428 9 1283 l-3 1215 -28 57
c-35 72 -104 133 -170 153 -44 13 -235 15 -1436 15 -1140 -1 -1393 -3 -1424
-14z m2867 -130 c21 -15 46 -42 57 -60 18 -30 19 -68 19 -1279 0 -1369 4
-1276 -60 -1331 -49 -41 -92 -47 -322 -44 l-213 3 -3 213 c-2 197 -1 212 15
212 34 0 142 59 183 100 23 23 56 72 73 108 l32 67 3 252 4 252 -26 25 -25 26
-313 0 c-268 0 -317 -2 -336 -16 -22 -15 -22 -18 -22 -274 0 -238 2 -264 21
-315 36 -97 151 -200 247 -220 l32 -7 -2 -211 -3 -212 -417 -3 c-230 -1 -418
1 -418 4 0 3 13 23 29 43 38 48 61 95 77 156 30 110 12 155 -63 155 -23 0 -43
3 -43 6 0 3 13 22 30 42 71 90 113 250 75 292 -13 14 -31 20 -62 20 -23 0 -43
3 -43 6 0 3 13 22 30 42 43 55 79 141 86 209 6 53 4 63 -15 82 -16 16 -33 21
-78 21 l-57 0 51 53 c96 97 146 259 111 362 -11 34 -18 40 -43 43 -22 2 -861
-150 -1176 -214 -67 -13 -72 -60 -19 -172 16 -35 30 -66 30 -68 0 -2 -12 -4
-28 -4 -48 0 -72 -25 -72 -75 0 -65 35 -165 80 -228 l41 -57 -44 0 c-64 0 -81
-23 -74 -97 7 -77 39 -161 82 -210 19 -23 35 -44 35 -47 0 -3 -20 -6 -44 -6
-27 0 -51 -6 -60 -16 -38 -38 -3 -194 64 -282 22 -29 40 -55 40 -58 0 -3 -64
-4 -142 -2 -166 4 -203 16 -246 81 l-27 41 -3 1230 c-2 835 0 1243 8 1267 14
51 47 88 94 110 39 18 94 19 1427 16 l1386 -2 37 -29z m-1452 -1337 c-6 -59
-42 -127 -93 -174 -63 -59 -86 -68 -249 -99 -120 -23 -159 -26 -359 -26 -223
0 -224 0 -257 25 -31 24 -69 76 -76 104 -2 11 110 35 507 111 281 54 515 97
520 96 6 -2 8 -18 7 -37z m1116 -452 l-3 -224 -30 -49 c-81 -131 -270 -154
-380 -47 -69 67 -75 92 -75 324 0 113 3 209 7 212 3 4 114 7 245 7 l239 0 -3
-223z m-2018 18 c75 -30 169 -30 315 -1 115 23 154 26 342 26 126 0 214 -4
218 -10 13 -21 -39 -111 -90 -159 -87 -79 -111 -83 -456 -79 -276 3 -297 4
-340 24 -81 38 -168 144 -169 207 0 17 7 18 68 14 37 -2 87 -12 112 -22z m880
-347 c0 -32 -51 -117 -92 -154 -82 -76 -101 -79 -448 -79 l-305 0 -50 27 c-63
33 -118 88 -144 144 -38 81 -84 74 509 74 417 0 530 -3 530 -12z m0 -361 c0
-29 -54 -118 -92 -152 -22 -21 -61 -47 -87 -59 -44 -20 -61 -21 -351 -21 -290
0 -307 1 -351 21 -63 30 -126 88 -155 146 -43 85 -89 78 506 78 429 0 530 -2
530 -13z"/>
</g>
</svg>
