
<svg version="1.0" xmlns="http://www.w3.org/2000/svg"
 width="1104.000000pt" height="2034.000000pt" viewBox="0 0 1104.000000 2034.000000"
 preserveAspectRatio="xMidYMid meet">

<g transform="translate(0.000000,2034.000000) scale(0.100000,-0.100000)"
fill="#00BFDE" stroke="#00BFDE">
<path d="M1610 20325 c0 -17 -7 -19 -66 -16 -29 2 -43 -2 -47 -13 -4 -11 -15
-13 -41 -9 -27 4 -36 2 -36 -8 0 -12 -2 -12 -9 0 -6 9 -11 10 -15 2 -4 -6 -15
-11 -26 -11 -10 0 -20 -6 -23 -14 -3 -9 -15 -12 -31 -9 -15 3 -26 1 -26 -6 0
-6 -13 -11 -28 -11 -30 0 -82 -20 -82 -32 0 -5 -11 -8 -24 -8 -29 0 -196 -84
-214 -108 -7 -9 -19 -16 -27 -14 -8 1 -20 -6 -27 -18 -7 -11 -21 -20 -30 -20
-10 0 -25 -11 -34 -26 -9 -14 -22 -23 -28 -21 -15 6 -40 -12 -55 -41 -7 -13
-18 -21 -25 -19 -7 3 -24 -7 -38 -21 -69 -74 -186 -189 -205 -202 -11 -8 -28
-32 -36 -52 -9 -21 -27 -43 -41 -50 -15 -6 -26 -19 -26 -30 0 -10 -9 -27 -20
-38 -11 -11 -20 -24 -20 -29 0 -5 -16 -28 -35 -51 -19 -23 -35 -49 -36 -58 0
-10 -9 -30 -20 -47 -10 -16 -22 -37 -25 -45 -37 -84 -46 -100 -53 -100 -5 0
-12 -21 -16 -46 -4 -26 -13 -48 -21 -51 -11 -4 -14 -13 -9 -30 4 -16 1 -25
-10 -30 -11 -4 -15 -13 -11 -29 4 -13 0 -29 -9 -38 -8 -8 -15 -28 -15 -45 0
-17 -5 -31 -11 -31 -8 0 -10 -12 -6 -35 4 -24 1 -40 -10 -50 -11 -12 -14 -27
-9 -55 7 -46 -10 -103 -24 -80 -7 10 -10 -13 -10 -67 0 -49 4 -83 10 -83 7 0
10 -2670 10 -7990 0 -5320 -3 -7990 -10 -7990 -6 0 -10 -34 -10 -82 0 -55 3
-78 10 -68 14 23 31 -34 24 -80 -5 -29 -2 -43 9 -55 11 -10 14 -25 11 -44 -4
-16 -1 -32 5 -35 6 -4 11 -21 11 -37 0 -17 7 -37 15 -45 9 -9 13 -25 9 -38 -4
-16 0 -25 11 -29 11 -5 14 -14 9 -32 -5 -19 -2 -25 9 -25 11 0 17 -15 22 -55
4 -30 11 -55 16 -55 5 0 9 -7 9 -15 0 -8 4 -15 9 -15 12 0 59 -96 67 -137 4
-19 14 -35 25 -38 10 -3 23 -21 29 -40 6 -19 16 -35 21 -35 5 0 9 -7 9 -16 0
-9 11 -25 25 -36 14 -11 25 -24 25 -29 0 -5 16 -25 35 -45 19 -19 35 -42 35
-52 0 -9 15 -28 32 -42 29 -23 53 -46 171 -167 22 -22 45 -39 52 -37 6 3 26
-13 43 -35 18 -23 38 -38 46 -35 7 3 20 -6 30 -20 9 -15 22 -23 30 -20 8 3 19
-3 25 -14 10 -19 63 -52 83 -52 6 0 18 -10 29 -22 11 -15 18 -18 19 -9 0 8 8
4 20 -10 12 -15 19 -19 20 -10 0 8 8 4 20 -10 13 -17 19 -19 20 -9 0 9 6 6 16
-9 13 -18 18 -20 25 -10 7 11 9 11 9 1 0 -7 8 -12 18 -10 10 1 29 -7 42 -20
18 -16 26 -19 32 -10 4 7 8 9 8 3 0 -15 50 -36 50 -22 0 8 3 8 8 2 4 -5 17
-16 29 -23 19 -10 23 -10 23 0 0 9 3 9 9 -1 5 -8 23 -14 40 -13 17 0 31 -4 31
-9 0 -6 16 -9 35 -7 21 1 39 -3 44 -10 5 -8 27 -12 60 -11 33 2 56 -2 60 -10
5 -7 17 -11 27 -9 18 3 19 -8 19 -312 0 -173 2 -317 5 -320 3 -3 10 -12 15
-21 48 -76 71 -98 103 -99 17 0 32 5 32 10 0 7 327 10 960 10 633 0 960 -3
960 -10 0 -17 39 -11 60 10 11 11 20 24 20 29 0 6 13 18 30 27 23 14 30 25 29
49 -5 230 2 599 12 611 17 21 3231 21 3248 0 9 -10 11 -103 9 -329 -2 -174 -1
-313 1 -311 6 6 81 -75 81 -87 0 -12 37 -12 45 1 9 14 1941 14 1950 0 12 -20
41 -9 63 25 12 20 33 40 45 46 l22 10 0 332 0 332 23 -3 c13 -2 30 2 38 9 9 7
35 12 60 10 24 -1 44 2 44 7 0 6 16 10 35 10 20 0 42 6 50 12 12 10 15 10 15
-1 0 -10 3 -10 12 -1 7 7 20 12 29 12 9 0 19 6 22 14 4 9 14 12 28 9 14 -4 25
0 30 10 5 9 17 13 29 10 20 -5 80 17 80 29 0 5 9 8 19 8 11 0 22 6 24 13 4 9
6 9 6 0 1 -14 170 71 189 95 7 9 19 16 27 14 8 -1 20 6 27 18 7 11 21 20 30
20 10 0 23 9 30 20 7 11 20 20 30 20 9 0 26 13 38 30 12 16 29 30 38 30 9 0
29 12 43 28 83 87 207 209 226 221 11 8 24 27 27 43 3 17 15 33 31 40 14 6 25
20 25 30 0 10 11 29 25 42 14 13 25 30 25 39 0 9 6 20 13 24 6 4 22 28 35 53
24 48 44 82 52 90 3 3 10 16 16 30 33 71 44 99 44 113 0 8 7 17 15 21 8 3 15
17 15 31 0 14 5 25 10 25 6 0 10 11 10 25 0 14 5 25 10 25 6 0 10 16 10 35 0
19 5 35 11 35 7 0 8 11 4 30 -5 23 -3 32 10 36 13 5 15 14 11 39 -5 24 -2 38
10 49 11 12 14 26 10 50 -8 39 1 66 20 66 10 0 14 15 14 60 0 33 -4 60 -10 60
-7 0 -10 2690 -10 8050 0 5360 3 8050 10 8050 6 0 10 27 10 60 0 45 -4 60 -14
60 -19 0 -28 27 -20 66 4 24 1 38 -10 50 -12 11 -15 25 -11 45 5 20 2 34 -9
45 -10 10 -14 24 -10 40 4 14 2 24 -5 24 -6 0 -11 16 -11 35 0 19 -4 35 -10
35 -5 0 -10 11 -10 25 0 14 -4 25 -10 25 -5 0 -10 13 -10 29 0 16 -6 31 -14
34 -8 3 -18 22 -22 42 -3 19 -10 38 -15 41 -5 3 -9 14 -9 25 0 10 -4 19 -10
19 -5 0 -10 9 -10 20 0 11 -4 20 -10 20 -5 0 -10 7 -10 15 0 8 -3 15 -7 15
-10 0 -43 58 -43 74 0 7 -9 21 -20 31 -11 10 -20 24 -20 31 0 7 -9 18 -20 24
-11 6 -20 19 -20 29 0 10 -11 26 -24 34 -13 9 -29 32 -36 51 -6 19 -19 38 -29
41 -14 4 -120 110 -244 242 -11 12 -24 20 -29 17 -5 -3 -22 10 -39 30 -17 19
-37 32 -44 29 -8 -2 -21 7 -30 21 -16 24 -66 56 -88 56 -5 0 -15 7 -21 15 -16
22 -226 125 -226 111 0 -6 -4 -5 -9 3 -5 8 -16 11 -25 8 -10 -4 -19 -1 -22 8
-4 9 -19 15 -35 15 -16 0 -29 5 -29 10 0 6 -13 10 -30 10 -16 0 -30 5 -30 11
0 7 -10 9 -25 7 -14 -3 -30 1 -36 9 -7 7 -27 12 -46 11 -20 -1 -38 3 -42 11
-5 8 -24 12 -47 11 -56 -4 -64 -2 -64 15 0 19 -96 22 -103 3 -3 -10 -11 -10
-39 0 -45 16 -7513 18 -7523 2 -3 -5 -17 -10 -30 -10 -13 0 -27 5 -30 10 -3 6
-26 10 -51 10 -32 0 -44 -4 -44 -15z m7666 -341 c25 -10 55 -14 87 -11 33 3
53 0 62 -9 7 -8 24 -14 37 -14 13 0 29 -5 36 -12 9 -9 12 -9 12 1 0 11 3 11
15 1 8 -7 24 -10 36 -7 12 3 22 0 26 -9 3 -8 13 -14 23 -14 11 0 22 -5 25 -11
4 -6 19 -9 34 -7 17 1 36 -6 51 -20 18 -16 26 -19 32 -10 6 10 8 10 8 1 0 -7
9 -13 20 -13 11 0 20 -4 20 -10 0 -5 9 -10 20 -10 11 0 20 -4 20 -10 0 -5 9
-10 20 -10 11 0 20 -4 20 -10 0 -12 60 -45 76 -42 6 1 19 -9 28 -23 9 -13 22
-22 29 -19 7 2 23 -9 35 -25 13 -18 28 -28 36 -25 8 3 21 -5 30 -18 24 -34
201 -213 231 -232 15 -10 25 -26 25 -40 0 -15 9 -27 25 -34 13 -6 27 -22 31
-36 3 -13 12 -27 20 -30 8 -3 14 -14 14 -25 0 -11 7 -26 15 -35 8 -8 15 -19
15 -24 0 -6 3 -12 8 -14 15 -6 52 -91 52 -119 0 -16 5 -29 10 -29 6 0 10 -7
10 -15 0 -8 5 -15 10 -15 6 0 10 -13 10 -29 0 -17 6 -31 15 -35 11 -4 14 -13
9 -31 -4 -15 -2 -25 5 -25 6 0 11 -14 11 -31 0 -17 6 -37 14 -45 10 -10 13
-26 9 -50 -4 -25 -2 -39 8 -45 10 -6 13 -27 11 -84 -2 -47 1 -75 8 -75 16 0
14 -10312 -2 -10328 -17 -17 -10299 -17 -10316 0 -16 16 -18 10263 -1 10273 6
4 9 41 7 96 -2 68 1 92 11 98 10 7 12 20 7 50 -5 33 -3 43 10 48 11 4 14 14
10 34 -3 18 0 34 9 43 8 8 15 26 15 40 0 14 4 26 9 26 5 0 11 23 15 50 4 31
13 53 21 57 8 3 15 11 15 19 0 8 5 14 10 14 6 0 10 13 10 28 0 16 8 34 19 42
11 7 23 30 26 50 4 23 20 52 41 74 19 20 34 45 34 56 0 11 11 27 24 35 13 9
27 27 30 40 3 13 19 34 36 47 47 37 165 153 183 182 10 14 26 26 36 26 11 0
31 14 44 30 14 17 33 30 41 30 9 0 21 9 28 20 7 11 18 20 24 20 20 0 74 31 84
48 8 14 10 14 10 2 0 -11 6 -8 20 9 12 14 20 18 20 10 1 -10 6 -7 18 6 9 11
23 20 30 21 33 3 40 6 62 26 15 14 34 21 51 20 15 -2 30 1 34 7 3 6 14 11 25
11 10 0 20 6 23 14 4 9 15 12 32 8 17 -3 30 0 35 9 6 8 23 12 46 11 22 -2 41
2 45 10 6 9 27 12 66 10 39 -2 69 2 88 12 27 14 415 16 3751 16 3395 0 3725
-1 3760 -16z m1398 -12110 c19 -7 21 -40 4 -48 -10 -5 -10 -7 0 -12 16 -8 18
-5284 2 -5284 -7 0 -10 -28 -8 -77 2 -54 -1 -78 -9 -80 -8 -3 -13 -22 -13 -48
0 -24 -4 -47 -10 -50 -6 -3 -10 -22 -10 -41 0 -19 -5 -34 -11 -34 -7 0 -9 -10
-5 -25 5 -18 2 -27 -9 -31 -9 -4 -15 -18 -15 -35 0 -16 -4 -29 -10 -29 -5 0
-10 -7 -10 -15 0 -8 -4 -15 -10 -15 -5 0 -10 -13 -10 -29 0 -17 -4 -33 -10
-36 -5 -3 -10 -15 -10 -26 0 -10 -4 -19 -10 -19 -5 0 -10 -7 -10 -15 0 -8 -4
-15 -10 -15 -5 0 -10 -7 -10 -16 0 -8 -7 -22 -15 -30 -8 -9 -15 -24 -15 -34 0
-11 -9 -24 -20 -30 -11 -6 -20 -20 -20 -31 0 -11 -11 -24 -25 -31 -14 -6 -29
-25 -36 -45 -6 -18 -22 -41 -36 -50 -28 -19 -159 -151 -194 -196 -12 -16 -27
-26 -33 -24 -15 6 -40 -12 -55 -41 -7 -14 -18 -21 -27 -18 -8 3 -21 -5 -30
-19 -9 -14 -20 -23 -24 -20 -11 7 -68 -24 -80 -43 -8 -14 -10 -14 -10 -2 0 11
-6 8 -20 -9 -12 -14 -20 -18 -20 -10 -1 9 -7 6 -19 -8 -10 -12 -21 -20 -24
-17 -7 8 -77 -26 -77 -37 0 -5 -13 -9 -29 -9 -16 0 -31 -6 -34 -14 -3 -9 -15
-12 -31 -9 -14 3 -26 1 -26 -5 0 -5 -16 -10 -36 -10 -20 0 -40 -6 -45 -13 -5
-9 -22 -12 -45 -10 -22 1 -40 -2 -45 -10 -5 -8 -27 -12 -62 -10 -31 1 -77 -5
-104 -14 -43 -14 -412 -15 -3754 -13 -3056 3 -3709 5 -3722 16 -10 9 -38 13
-77 11 -41 -2 -64 2 -69 10 -5 8 -24 12 -51 10 -28 -2 -45 1 -48 9 -2 7 -21
12 -43 12 -21 0 -39 5 -39 10 0 6 -11 10 -25 10 -14 0 -36 9 -48 20 -14 13
-23 17 -26 9 -2 -6 -6 -7 -10 -3 -12 18 -131 72 -131 61 0 -7 -5 -4 -11 6 -11
19 -56 42 -75 38 -6 -1 -19 10 -28 24 -9 14 -21 25 -27 25 -6 0 -17 7 -25 15
-8 8 -21 12 -28 9 -7 -3 -25 10 -39 29 -14 18 -33 34 -43 34 -10 0 -27 12 -38
27 -31 39 -140 148 -171 169 -14 10 -28 32 -32 47 -3 16 -13 32 -23 35 -17 5
-80 94 -80 113 0 5 -6 12 -14 15 -8 3 -17 24 -21 46 -4 23 -11 41 -16 41 -5 0
-9 9 -9 20 0 11 -4 20 -10 20 -5 0 -10 9 -10 20 0 11 -4 20 -10 20 -5 0 -10 7
-10 15 0 8 -4 15 -10 15 -5 0 -10 10 -10 21 0 12 -7 27 -15 33 -8 6 -18 33
-22 61 -3 27 -12 56 -20 63 -8 8 -11 23 -7 37 4 16 0 30 -9 40 -11 11 -14 26
-10 51 4 25 2 39 -8 44 -10 7 -13 32 -11 104 2 63 -1 96 -7 96 -17 0 -15 5216
2 5224 10 5 10 7 0 12 -7 3 -13 14 -13 24 0 10 6 21 13 23 18 8 10292 8 10311
1z m-7127 -7136 c19 -15 19 -361 0 -376 -19 -16 -1504 -17 -1523 -1 -19 16
-20 359 -2 377 17 17 1505 17 1525 0z m5471 0 c8 -8 12 -64 12 -188 0 -124 -4
-180 -12 -188 -17 -17 -1499 -17 -1516 0 -8 8 -12 64 -12 188 0 124 4 180 12
188 17 17 1499 17 1516 0z"/>
<path d="M1217 14468 c-5 -3 -24 -4 -41 -1 -25 4 -38 -1 -64 -26 -19 -19 -32
-41 -32 -56 0 -14 -7 -28 -15 -31 -13 -5 -15 -179 -15 -1479 0 -972 3 -1476
10 -1480 6 -3 10 -15 10 -26 0 -10 5 -19 10 -19 6 0 10 -8 10 -18 0 -19 36
-46 50 -37 4 3 14 0 22 -7 10 -10 149 -13 636 -13 342 0 622 4 622 9 0 4 6 6
13 3 8 -3 18 -2 23 1 15 11 54 70 54 82 0 5 3 10 8 10 4 0 7 673 7 1495 0 822
-3 1495 -7 1495 -5 0 -8 4 -8 8 0 5 -17 27 -38 50 -31 33 -45 41 -73 41 -19 0
-290 1 -602 3 -313 2 -574 0 -580 -4z m957 -334 c19 -7 21 -40 4 -48 -10 -5
-10 -7 0 -12 17 -8 18 -2434 0 -2452 -9 -9 -109 -12 -390 -12 l-378 0 -2 1258
c-2 691 -2 1260 0 1265 4 8 743 10 766 1z"/>
<path d="M1158 6931 c-15 -9 -41 -34 -58 -56 -16 -22 -34 -45 -40 -52 -14 -17
-14 -2963 0 -2963 6 0 10 -6 10 -13 0 -21 97 -121 103 -106 4 10 6 10 6 2 1
-10 131 -13 615 -13 614 0 614 0 655 22 27 14 44 31 48 48 3 14 10 30 17 35 8
7 11 407 11 1510 l0 1500 -22 20 c-13 11 -23 26 -23 33 0 7 -9 12 -20 12 -11
0 -20 5 -20 11 0 7 -9 9 -21 6 -12 -3 -22 0 -26 9 -4 12 -94 14 -593 14 -461
0 -589 -3 -593 -12 -4 -9 -8 -10 -14 -2 -6 8 -16 6 -35 -5z m1012 -352 c0 -5
4 -7 10 -4 6 4 10 -423 10 -1235 0 -831 -3 -1239 -10 -1235 -5 3 -10 1 -10 -4
0 -8 -119 -11 -380 -11 l-380 0 0 1250 0 1250 380 0 c261 0 380 -3 380 -11z"/>
</g>
</svg>
