<svg version="1.0" xmlns="http://www.w3.org/2000/svg"
     width="100%" height="100%" viewBox="0 0 210 177"
     preserveAspectRatio="xMidYMid meet">

  <g transform="translate(0,177) scale(0.1,-0.1)"
     fill="#00BFDE" stroke="none">
    <path d="M1555 1302 c-22 -11 -53 -33 -69 -50 -24 -26 -27 -34 -17 -46 11 -13
    17 -11 45 19 42 45 79 58 138 50 39 -6 48 -4 48 8 0 21 -10 26 -62 32 -30 4
    -55 0 -83 -13z"/>
    <path d="M808 1154 c-31 -16 -48 -43 -48 -73 0 -30 18 -26 38 8 20 35 52 47
    68 26 9 -12 14 -12 28 -2 15 11 15 14 1 35 -18 25 -48 28 -87 6z"/>
    <path d="M1310 1143 c-431 -69 -640 -168 -812 -385 -37 -45 -80 -95 -97 -110
    -35 -30 -38 -40 -15 -62 14 -14 70 -16 470 -16 431 0 458 1 515 20 73 25 133
    61 154 94 15 23 14 28 -15 85 -47 94 -64 172 -56 265 7 99 -4 117 -73 115 -25
    -1 -57 -4 -71 -6z m101 -115 c-4 -91 10 -158 52 -251 28 -64 29 -68 13 -86 -9
    -10 -45 -32 -79 -47 l-62 -29 -453 -3 -452 -3 78 98 c123 153 209 221 360 283
    127 53 420 121 507 117 l40 -2 -4 -77z"/>
    <path d="M1092 1006 c-211 -40 -359 -113 -402 -196 -26 -51 -25 -83 3 -115 29
    -34 102 -45 307 -45 246 0 302 14 354 84 27 36 29 153 3 206 -34 70 -124 92
    -265 66z m197 -48 c29 -18 46 -65 46 -130 0 -52 -4 -61 -32 -89 -29 -29 -38
    -32 -129 -41 -95 -9 -399 -3 -430 9 -28 10 -35 40 -20 76 25 60 110 111 253
    152 155 44 265 52 312 23z"/>
    <path d="M875 770 c-15 -24 11 -30 126 -30 109 0 120 2 117 18 -3 15 -18 17
    -120 20 -72 2 -119 -1 -123 -8z"/>
    <path d="M377 474 c-4 -4 -4 -11 -1 -15 3 -5 219 -9 480 -9 415 0 474 2 474
    15 0 13 -59 15 -473 15 -261 0 -477 -3 -480 -6z"/>
  </g>
</svg>