
<svg version="1.0" xmlns="http://www.w3.org/2000/svg"
 width="270.000000pt" height="226.000000pt" viewBox="0 0 270.000000 226.000000"
 preserveAspectRatio="xMidYMid meet">

<g transform="translate(0.000000,226.000000) scale(0.100000,-0.100000)"
fill="#00BFDE" stroke="none">
<path d="M790 2235 c-144 -27 -227 -70 -328 -169 -104 -102 -164 -209 -213
-383 -19 -69 -28 -100 -43 -155 -35 -126 -48 -176 -67 -245 -10 -40 -28 -108
-40 -150 -63 -238 -71 -281 -73 -373 -4 -231 99 -459 267 -586 106 -81 213
-124 393 -159 105 -20 132 -19 247 5 203 41 347 129 440 268 142 212 152 477
25 690 -87 146 -227 238 -428 283 -104 23 -149 24 -237 3 -202 -46 -318 -127
-387 -267 -96 -196 -68 -412 73 -561 65 -68 104 -95 181 -123 244 -91 474 -16
568 185 24 51 27 69 27 162 0 90 -4 111 -24 150 -33 65 -117 147 -181 178 -47
22 -68 26 -150 26 -113 0 -169 -22 -225 -87 -35 -40 -65 -117 -65 -164 0 -127
101 -227 230 -227 88 0 171 69 156 129 -8 30 -53 35 -63 8 -15 -44 -45 -63
-97 -63 -130 0 -198 141 -122 253 74 109 283 108 393 -1 145 -146 91 -402
-103 -488 -44 -19 -71 -24 -142 -24 -96 0 -157 15 -233 57 -61 33 -142 119
-170 180 -71 157 -34 355 89 475 105 102 189 133 362 133 93 0 128 -5 184 -23
164 -55 291 -175 349 -329 30 -79 32 -289 4 -373 -24 -68 -91 -172 -148 -227
-50 -47 -171 -116 -245 -138 -151 -45 -395 -21 -542 54 -154 78 -275 221 -328
388 -25 77 -30 279 -10 362 66 270 298 480 586 529 85 15 294 7 374 -13 141
-36 287 -118 400 -224 117 -112 214 -261 380 -591 128 -253 222 -401 291 -458
86 -70 161 -99 350 -132 144 -26 159 -26 175 5 20 38 0 55 -66 55 -58 0 -80
14 -90 58 -3 15 -12 49 -20 76 -7 27 -11 52 -8 57 3 5 20 9 38 9 19 0 44 9 57
19 23 19 23 20 6 38 -11 11 -38 20 -74 23 -55 5 -56 6 -69 43 -8 21 -16 61
-20 88 -6 48 -6 49 20 49 38 0 66 17 66 41 0 23 -10 28 -76 37 l-48 7 -18 60
c-21 70 -17 90 14 82 28 -8 48 9 48 38 0 25 -17 35 -61 35 -36 0 -55 28 -64
93 -7 48 -4 52 33 48 6 -1 17 10 24 25 11 23 10 28 -7 40 -10 8 -33 14 -51 14
-25 0 -34 5 -42 28 -11 27 -15 55 -13 80 0 6 9 12 20 12 10 0 24 7 31 15 18
21 -14 55 -51 55 -21 0 -29 6 -38 31 -16 47 -14 58 14 65 19 5 25 13 25 35 0
25 -4 29 -37 34 -166 24 -229 52 -330 148 -39 37 -111 120 -159 185 -184 247
-361 396 -542 458 -122 41 -271 52 -392 29z m220 -69 c145 -21 224 -52 335
-132 67 -48 222 -204 275 -277 74 -102 160 -204 216 -257 59 -56 205 -140 242
-140 11 0 24 -6 30 -12 8 -11 96 -327 178 -643 30 -118 76 -290 119 -446 19
-69 35 -132 35 -138 0 -13 -68 -7 -100 9 -8 4 -36 18 -63 31 -101 48 -175 140
-292 364 -32 61 -85 162 -118 225 -123 236 -158 293 -243 400 -101 126 -207
212 -350 281 -56 27 -109 49 -118 49 -9 0 -24 4 -34 9 -84 43 -425 43 -537 1
-11 -5 -36 -13 -55 -20 -83 -29 -180 -86 -258 -152 -18 -16 -37 -26 -42 -23
-5 3 7 63 26 133 20 70 40 145 45 167 48 197 138 363 243 449 89 72 175 104
366 135 3 0 48 -6 100 -13z"/>
</g>
</svg>
