
<svg version="1.0" xmlns="http://www.w3.org/2000/svg"
 width="1280.000000pt" height="853.000000pt" viewBox="0 0 1280.000000 853.000000"
 preserveAspectRatio="xMidYMid meet">

<g transform="translate(0.000000,853.000000) scale(0.100000,-0.100000)"
fill="#00BFDE" stroke="none">
<path d="M7173 7010 c-45 -27 -65 -62 -65 -114 0 -74 61 -136 133 -136 36 0
88 31 109 65 72 117 -60 257 -177 185z m140 -51 c19 -21 27 -40 27 -67 0 -27
-3 -33 -10 -22 -5 8 -10 22 -10 30 0 21 -55 80 -74 80 -8 0 -18 5 -22 11 -15
24 62 -3 89 -32z"/>
<path d="M5736 6572 c-10 -41 -57 -88 -98 -97 l-32 -8 47 -23 c50 -26 71 -51
83 -98 l7 -29 16 40 c21 53 39 73 80 90 l34 15 -42 19 c-34 15 -46 28 -65 71
l-23 53 -7 -33z"/>
<path d="M7637 6260 c-3 -8 -10 -37 -17 -65 -17 -76 -66 -169 -105 -204 -49
-42 -120 -77 -200 -97 -36 -9 -63 -20 -58 -24 4 -4 29 -12 56 -19 185 -45 269
-128 307 -306 7 -33 16 -64 20 -68 4 -5 13 19 19 52 28 141 69 219 140 267 39
25 158 64 198 64 41 0 24 18 -25 29 -189 40 -265 115 -311 308 -10 43 -21 71
-24 63z"/>
<path d="M4117 5760 c-30 -5 -57 -25 -115 -82 -87 -85 -147 -128 -230 -164
-96 -43 -101 -46 -117 -79 -19 -42 -20 -154 -1 -200 18 -43 54 -61 141 -69 88
-8 163 -43 211 -99 41 -47 97 -158 116 -229 10 -41 10 -52 -5 -84 -15 -31 -18
-63 -16 -198 1 -157 1 -163 -25 -214 -78 -155 -174 -435 -225 -657 -98 -427
-113 -864 -46 -1324 38 -259 146 -675 206 -793 38 -74 -175 -68 2366 -68 2521
0 2350 -4 2477 62 84 44 204 165 244 246 17 35 38 97 48 139 59 267 -110 569
-371 665 -82 29 -238 36 -324 14 -34 -9 -68 -16 -74 -16 -7 0 -20 22 -29 48
-26 71 -87 160 -152 219 -179 164 -458 189 -661 59 -109 -70 -205 -194 -236
-306 -7 -25 -16 -49 -20 -54 -4 -4 -31 3 -61 18 -152 73 -344 74 -487 1 l-49
-25 -57 34 c-143 87 -308 68 -433 -48 l-49 -46 -57 26 c-32 14 -88 31 -125 37
l-68 10 -7 96 c-17 242 -67 472 -147 682 -58 151 -72 166 -226 229 -71 29
-181 79 -246 113 -270 138 -408 321 -471 622 -12 59 -12 72 1 103 11 27 14 68
11 178 l-3 143 111 51 c61 27 118 50 127 50 8 0 72 -72 142 -160 70 -89 139
-170 153 -180 27 -22 91 -27 123 -10 30 17 51 68 47 114 -3 22 -44 175 -91
339 -48 163 -87 304 -87 311 0 17 63 38 180 61 101 20 126 31 154 68 19 26 21
42 21 162 0 151 -11 179 -76 202 -38 13 -1424 17 -1492 3z m1117 -106 c14 -5
16 -28 16 -144 l0 -139 -97 -46 c-122 -57 -227 -137 -310 -235 -64 -75 -137
-186 -162 -248 l-14 -32 -209 2 -210 3 -28 77 c-43 116 -89 196 -152 260 -66
69 -137 104 -240 121 l-73 13 -3 46 -3 47 89 45 c89 45 206 131 271 200 l35
36 537 0 c296 0 544 -3 553 -6z m320 0 c13 -5 16 -24 16 -104 l0 -99 -72 -16
c-40 -9 -86 -17 -103 -18 l-30 -2 -3 109 c-2 71 1 113 9 122 12 14 151 20 183
8z m-316 -486 c18 -57 42 -138 126 -433 28 -98 31 -119 16 -110 -6 4 -71 82
-144 173 -73 92 -139 172 -147 179 -12 9 -38 2 -128 -38 -63 -27 -116 -47
-119 -45 -10 11 75 120 148 190 69 66 187 145 217 146 6 0 20 -28 31 -62z
m-547 -523 c3 -27 4 -78 1 -113 l-5 -62 -236 2 -236 3 -3 99 c-1 55 0 106 2
113 5 11 51 13 238 11 l233 -3 6 -50z m5 -376 c31 -116 76 -230 121 -309 49
-84 165 -205 256 -268 83 -57 250 -142 387 -197 52 -21 105 -47 118 -59 30
-29 86 -179 127 -341 96 -380 88 -853 -21 -1215 -50 -165 -83 -239 -114 -255
-25 -13 -131 -15 -744 -15 l-715 0 -21 56 c-191 512 -259 1182 -177 1739 50
331 144 650 263 888 l34 67 232 -2 231 -3 23 -86z m3267 -1380 c159 -53 268
-175 299 -337 12 -62 31 -92 58 -92 10 0 49 15 86 33 65 30 75 32 185 32 113
0 117 -1 190 -37 180 -89 289 -297 259 -492 -28 -184 -156 -324 -337 -371 -49
-13 -255 -15 -1518 -15 -804 0 -1464 2 -1467 5 -3 3 8 39 23 80 73 188 126
436 145 678 4 52 11 87 18 88 64 6 136 -18 209 -70 50 -36 80 -33 103 10 80
155 259 191 386 79 26 -22 55 -40 66 -40 11 0 46 16 78 35 82 49 125 60 234
59 110 -1 184 -24 253 -80 88 -71 123 -77 145 -28 7 14 12 44 12 68 0 85 46
196 112 272 109 124 304 176 461 123z"/>
<path d="M6277 5616 c-70 -25 -115 -65 -147 -129 -39 -78 -40 -142 -4 -215 48
-96 136 -148 240 -139 141 11 243 126 232 261 -9 101 -69 180 -165 216 -62 23
-103 25 -156 6z m141 -61 c97 -41 147 -153 107 -240 l-13 -30 -1 41 c-2 98
-94 202 -192 218 -33 5 -40 9 -29 16 23 15 86 12 128 -5z"/>
<path d="M7991 4782 c-19 -9 -48 -34 -64 -54 -59 -74 -35 -188 51 -236 98 -55
227 4 248 113 23 126 -122 235 -235 177z m134 -42 c45 -28 84 -127 56 -144 -5
-3 -11 8 -15 25 -9 47 -45 90 -93 111 -23 10 -43 21 -43 23 0 13 67 2 95 -15z"/>
<path d="M6070 4358 c0 -37 -44 -122 -79 -150 -17 -15 -58 -37 -91 -49 -33
-12 -60 -23 -60 -25 0 -1 24 -10 53 -18 28 -9 66 -25 84 -35 35 -22 78 -96 92
-158 9 -42 11 -39 36 51 20 73 63 119 125 136 89 24 90 26 28 44 -91 26 -146
86 -163 179 -8 43 -25 59 -25 25z"/>
<path d="M7309 3939 c-97 -15 -191 -85 -236 -177 -56 -115 -30 -264 62 -357
89 -88 238 -116 352 -66 62 28 136 102 166 169 68 151 -19 352 -177 411 -66
24 -110 29 -167 20z m158 -93 c37 -19 86 -72 108 -116 19 -37 26 -135 12 -183
-11 -41 -27 -23 -27 31 0 58 -35 136 -81 179 -47 43 -125 83 -165 83 -36 0
-46 15 -16 24 30 9 140 -3 169 -18z"/>
<path d="M6487 3247 c-20 -64 -61 -105 -131 -132 -52 -20 -52 -30 -1 -39 52
-10 110 -67 130 -127 9 -27 18 -49 20 -49 2 0 11 24 19 53 9 28 22 59 29 68
19 25 79 59 104 59 41 0 33 18 -15 34 -68 23 -100 61 -126 149 l-11 40 -18
-56z"/>
</g>
</svg>
