
<svg version="1.0" xmlns="http://www.w3.org/2000/svg"
 width="270.000000pt" height="252.000000pt" viewBox="0 0 270.000000 252.000000"
 preserveAspectRatio="xMidYMid meet">

<g transform="translate(0.000000,252.000000) scale(0.100000,-0.100000)"
fill="#00BFDE" stroke="none" >
<path d="M200 2499 c-72 -25 -119 -64 -150 -125 l-25 -49 0 -1060 c0 -994 1
-1062 18 -1098 23 -50 89 -113 135 -129 30 -10 265 -13 1182 -13 l1145 0 45
25 c52 30 105 96 120 150 7 26 10 378 8 1087 l-3 1048 -22 40 c-31 58 -71 92
-143 120 l-64 25 -1095 -1 c-1057 -1 -1098 -1 -1151 -20z m2281 -74 c24 -9 54
-26 67 -38 55 -51 53 7 52 -1123 0 -1045 0 -1047 -21 -1084 -12 -21 -38 -47
-59 -59 l-38 -21 -1131 0 c-1254 0 -1163 -5 -1218 67 l-28 36 -3 1041 c-2 783
0 1050 9 1078 15 46 53 83 104 102 62 23 2202 23 2266 1z"/>
<path d="M679 2237 c-42 -28 -79 -91 -79 -135 0 -44 33 -105 73 -136 46 -36
138 -37 188 -3 93 63 90 219 -6 276 -51 29 -131 29 -176 -2z m151 -84 c17 -22
21 -37 17 -66 -7 -48 -30 -66 -83 -67 -61 0 -95 49 -74 105 15 39 38 54 82 55
28 0 41 -6 58 -27z"/>
<path d="M1127 2232 c-26 -27 -27 -33 -27 -136 0 -100 2 -108 25 -131 24 -25
25 -25 229 -25 l205 0 20 26 c18 23 21 41 21 136 0 102 -1 110 -25 133 -24 25
-25 25 -223 25 l-198 0 -27 -28z m393 -132 l0 -80 -170 0 -170 0 0 80 0 80
170 0 170 0 0 -80z"/>
<path d="M1854 2241 c-53 -32 -79 -78 -79 -141 1 -103 59 -160 165 -160 53 0
64 4 96 32 91 80 84 198 -15 265 -44 30 -122 31 -167 4z m141 -86 c31 -30 32
-73 4 -109 -16 -21 -29 -26 -63 -26 -51 0 -74 21 -83 73 -5 30 -1 40 22 61 37
34 87 35 120 1z"/>
<path d="M191 1826 c-12 -14 -11 -20 8 -40 17 -18 37 -25 84 -30 34 -3 100
-11 147 -16 587 -71 1286 -71 1840 -1 47 6 115 15 153 19 76 9 109 31 91 60
-14 21 -100 22 -244 3 -560 -73 -1232 -74 -1830 -1 -182 22 -235 24 -249 6z"/>
<path d="M317 1504 c-15 -8 -32 -26 -37 -40 -6 -15 -10 -238 -10 -540 l0 -516
29 -29 29 -29 1016 0 c622 0 1024 4 1040 10 56 21 56 25 56 568 0 552 0 553
-60 578 -27 12 -209 14 -1034 14 -875 -1 -1005 -3 -1029 -16z m2031 -76 c19
-19 17 -971 -2 -987 -10 -8 -280 -10 -1002 -9 l-989 3 -3 489 c-1 353 1 493 9
502 16 19 1968 21 1987 2z"/>
<path d="M530 1160 c-8 -14 -8 -26 0 -40 11 -20 21 -20 825 -20 805 0 814 0
820 20 3 11 3 29 0 40 -6 20 -15 20 -820 20 -804 0 -814 0 -825 -20z"/>
<path d="M525 740 c-3 -10 -1 -28 5 -40 11 -20 16 -20 819 -20 874 0 837 -2
829 52 l-3 23 -822 3 c-810 2 -822 2 -828 -18z"/>
</g>
</svg>
