
<svg version="1.0" xmlns="http://www.w3.org/2000/svg"
 width="268.000000pt" height="252.000000pt" viewBox="0 0 268.000000 252.000000"
 preserveAspectRatio="xMidYMid meet">

<g transform="translate(0.000000,252.000000) scale(0.100000,-0.100000)"
fill="#00BFDE" stroke="none">
<path d="M519 2503 c-8 -9 -14 -40 -14 -72 -1 -62 -27 -125 -73 -175 -40 -42
-122 -76 -187 -76 -45 0 -56 -4 -65 -21 -9 -16 -8 -25 6 -40 13 -14 29 -18 73
-17 129 3 243 -113 245 -249 2 -63 22 -91 53 -74 17 8 21 24 25 83 5 80 18
108 77 171 43 45 120 76 176 70 30 -4 47 0 65 15 24 19 24 21 7 40 -13 14 -35
21 -87 24 -55 4 -79 12 -119 37 -68 44 -111 112 -117 188 -9 101 -33 136 -65
96z m55 -273 c10 -17 33 -41 52 -53 18 -12 33 -25 31 -29 -4 -11 -108 -118
-115 -118 -9 0 -112 103 -112 112 0 10 103 116 115 117 6 1 19 -13 29 -29z"/>
<path d="M2182 2248 c-7 -7 -12 -25 -12 -41 0 -38 -66 -107 -103 -107 -14 0
-35 -9 -48 -20 l-24 -20 24 -20 c13 -11 34 -20 48 -20 37 0 103 -69 103 -107
0 -33 16 -53 42 -53 20 0 38 29 38 63 0 31 71 97 104 97 13 0 34 9 47 20 l24
20 -24 20 c-13 11 -34 20 -47 20 -33 0 -104 66 -104 97 0 52 -38 81 -68 51z
m48 -188 c0 -13 -7 -20 -20 -20 -13 0 -20 7 -20 20 0 13 7 20 20 20 13 0 20
-7 20 -20z"/>
<path d="M1240 1996 c-41 -13 -95 -32 -120 -43 -97 -43 -309 -129 -337 -138
-14 -4 -25 -17 -29 -33 -3 -15 -7 -33 -10 -39 -6 -23 19 -15 222 68 286 117
331 132 384 127 38 -4 374 -132 720 -274 47 -20 106 -44 133 -55 103 -42 154
-63 193 -80 122 -53 228 -89 245 -84 19 6 25 31 11 50 -6 9 -46 27 -217 97
-27 12 -64 27 -82 35 -26 11 -615 248 -808 325 -98 38 -189 68 -209 67 -12 0
-55 -11 -96 -23z"/>
<path d="M225 1592 c-195 -80 -220 -93 -220 -116 0 -33 49 -38 108 -11 29 12
75 32 102 43 28 11 89 37 136 56 47 20 91 36 98 36 6 0 11 3 11 8 0 11 -59 42
-78 41 -9 0 -80 -26 -157 -57z"/>
<path d="M2348 1258 c-2 -2 -5 -262 -8 -578 l-5 -575 -252 -3 -253 -2 0 229
c0 131 -5 253 -11 283 -21 100 -70 187 -145 259 -77 73 -131 102 -237 130 -89
23 -113 23 -196 3 -187 -46 -311 -153 -373 -320 -19 -53 -22 -85 -27 -319 l-6
-260 -252 -3 -253 -2 0 165 0 165 -35 0 -35 0 0 -195 0 -195 26 -10 c14 -6
149 -10 310 -10 274 0 285 1 305 21 20 20 20 30 18 292 -2 337 3 358 115 475
214 225 572 151 695 -143 25 -58 26 -68 29 -343 l4 -283 25 -10 c13 -5 152 -9
309 -9 271 0 285 1 304 20 20 20 20 33 20 604 0 518 -2 586 -16 600 -13 14
-49 22 -56 14z"/>
<path d="M273 1168 c-6 -7 -13 -37 -16 -67 -12 -100 -85 -171 -177 -171 -51 0
-80 -15 -80 -40 0 -14 9 -20 33 -24 17 -3 50 -8 72 -11 87 -14 140 -74 151
-171 4 -31 14 -62 22 -70 13 -13 17 -13 33 2 14 12 19 31 19 67 0 94 68 164
173 175 58 7 62 9 65 34 4 30 -9 36 -73 39 -49 3 -82 18 -116 56 -38 40 -49
66 -49 113 0 66 -30 102 -57 68z m49 -235 c35 -33 35 -43 -1 -77 l-28 -27 -32
31 -31 32 27 33 c16 19 30 34 32 34 3 1 18 -11 33 -26z"/>
</g>
</svg>
