
<svg version="1.0" xmlns="http://www.w3.org/2000/svg"
 width="218.000000pt" height="268.000000pt" viewBox="0 0 218.000000 268.000000"
 preserveAspectRatio="xMidYMid meet">

<g transform="translate(0.000000,268.000000) scale(0.100000,-0.100000)"
fill="#00BFDE" stroke="none">
<path d="M340 2663 c-179 -55 -283 -164 -319 -331 -18 -85 -15 -1918 4 -1995
19 -81 48 -133 108 -195 63 -65 140 -106 228 -121 91 -15 1367 -15 1458 0 93
16 162 51 224 112 63 61 93 115 118 212 17 65 19 132 19 993 0 913 0 924 -22
1009 -40 162 -133 259 -293 308 l-81 25 -700 -1 c-570 -1 -707 -4 -744 -16z
m1525 -87 c103 -38 176 -110 211 -208 17 -47 31 -221 21 -260 -8 -29 -21 -32
-177 -49 -260 -29 -652 -52 -870 -52 -302 0 -889 46 -942 74 -20 11 -20 17
-16 138 4 111 8 133 32 181 14 30 34 64 44 75 31 36 96 82 132 93 19 6 49 16
65 21 18 6 306 9 740 8 667 -2 713 -3 760 -21z m-1570 -605 c55 -6 152 -16
215 -23 155 -17 928 -17 1105 0 282 27 332 33 395 42 44 6 68 6 77 -2 10 -8
13 -165 13 -782 0 -800 -2 -852 -42 -930 -28 -54 -104 -127 -163 -156 l-50
-25 -755 0 -755 0 -51 27 c-64 33 -136 106 -166 167 l-23 46 -3 824 c-2 587 1
826 8 831 6 4 30 3 53 -1 23 -5 87 -13 142 -18z"/>
<path d="M976 2472 c-51 -35 -91 -111 -91 -172 0 -66 39 -136 95 -171 78 -49
206 -35 261 27 31 35 59 103 59 142 0 72 -52 158 -117 191 -12 6 -55 11 -95
11 -63 -1 -78 -4 -112 -28z m192 -70 c24 -16 52 -71 52 -104 0 -31 -40 -95
-67 -107 -99 -45 -213 42 -184 140 26 87 121 121 199 71z"/>
<path d="M1452 2397 c-31 -33 -32 -152 -1 -191 l20 -26 164 0 164 0 20 26 c17
21 21 41 21 94 0 53 -4 73 -21 94 l-20 26 -163 0 c-157 0 -163 -1 -184 -23z
m308 -97 l0 -41 -127 3 c-125 3 -128 3 -131 26 -7 50 -1 52 133 52 l125 0 0
-40z"/>
<path d="M357 2242 c-22 -24 -21 -39 2 -52 26 -13 356 -13 382 0 24 13 24 32
1 53 -16 15 -45 17 -194 17 -157 0 -177 -2 -191 -18z"/>
<path d="M960 1745 c-158 -30 -280 -95 -395 -210 -118 -118 -180 -236 -211
-405 -17 -96 -17 -157 0 -245 31 -156 93 -279 193 -385 178 -190 435 -275 678
-226 96 19 121 28 205 70 249 125 405 376 409 661 4 211 -111 456 -271 581
-185 143 -397 199 -608 159z m226 -74 c16 -5 55 -15 87 -22 32 -7 60 -16 63
-21 3 -4 11 -8 19 -8 31 0 145 -80 216 -152 271 -275 247 -723 -52 -971 -64
-52 -170 -109 -236 -126 -24 -6 -60 -16 -82 -21 -121 -31 -317 7 -454 88 -137
82 -253 234 -303 397 -27 89 -25 267 4 359 92 287 348 480 643 485 36 1 79 -3
95 -8z"/>
<path d="M927 1480 c-120 -46 -217 -127 -268 -224 -24 -46 -24 -47 -5 -62 33
-24 53 -16 81 32 57 97 178 180 280 192 53 5 85 34 69 60 -16 24 -97 25 -157
2z"/>
<path d="M607 1083 c-13 -12 -7 -50 9 -64 31 -26 70 25 44 56 -13 16 -42 20
-53 8z"/>
</g>
</svg>
