
<svg version="1.0" xmlns="http://www.w3.org/2000/svg"
 width="270.000000pt" height="270.000000pt" viewBox="0 0 270.000000 270.000000"
 preserveAspectRatio="xMidYMid meet">

<g transform="translate(0.000000,270.000000) scale(0.100000,-0.100000)"
fill="#00BFDE" stroke="none">
<path d="M127 2666 c-46 -17 -64 -31 -85 -70 -16 -29 -17 -115 -17 -1076 0
-1027 0 -1046 20 -1079 11 -19 33 -43 48 -55 28 -21 32 -21 745 -21 l717 0 0
30 0 30 -145 5 -145 5 -3 1083 c-1 595 1 1082 5 1082 5 0 238 0 520 0 530 1
540 0 560 -40 4 -8 10 -109 13 -225 l5 -210 35 0 35 0 0 210 c0 236 -6 262
-73 313 l-35 27 -1081 2 c-887 2 -1088 0 -1119 -11z m1053 -1151 l0 -1086
-516 3 -516 3 -24 28 -24 28 0 1030 0 1030 25 24 24 25 516 0 515 0 0 -1085z"/>
<path d="M537 2422 c-10 -11 -17 -36 -17 -61 0 -105 -80 -181 -190 -181 -48 0
-67 -21 -52 -55 10 -22 18 -25 67 -25 64 0 88 -10 128 -54 36 -38 47 -66 47
-116 0 -56 8 -70 40 -70 32 0 40 14 40 70 0 50 13 83 47 118 41 42 65 52 128
52 49 0 57 3 67 25 15 34 -4 55 -52 55 -110 0 -190 77 -190 185 0 28 -6 47
-18 58 -23 21 -25 21 -45 -1z m55 -249 c24 -21 23 -33 -8 -62 l-25 -24 -24 23
c-29 28 -31 37 -8 62 20 22 41 23 65 1z"/>
<path d="M773 1563 c-11 -24 -26 -39 -39 -41 -29 -4 -56 -35 -49 -55 4 -8 19
-21 35 -27 16 -7 38 -27 49 -46 27 -46 54 -44 85 5 14 22 36 41 50 45 46 11
31 68 -19 78 -11 2 -28 20 -38 41 -23 50 -51 50 -74 0z"/>
<path d="M1844 1917 c-12 -31 1 -51 36 -58 19 -4 120 -10 225 -14 104 -4 192
-8 195 -10 3 -2 45 -6 93 -10 91 -6 137 -18 137 -34 0 -6 -21 -19 -47 -31 -61
-27 -77 -42 -114 -107 l-30 -53 -64 0 -64 0 -40 48 c-66 78 -180 136 -286 144
-38 3 -40 2 -43 -29 -3 -34 -1 -36 73 -48 66 -11 136 -52 207 -122 l67 -67 83
-3 c101 -5 124 6 148 66 23 59 74 104 143 126 68 21 81 35 72 73 -10 45 -55
81 -121 97 -32 7 -61 12 -64 10 -4 -2 -38 1 -76 6 -72 10 -108 13 -366 24
-138 7 -158 5 -164 -8z"/>
<path d="M1690 1878 c-27 -45 -25 -84 4 -113 42 -42 56 -25 56 66 0 73 -2 79
-20 79 -12 0 -28 -13 -40 -32z"/>
<path d="M1879 1543 c-34 -67 -78 -132 -132 -197 -59 -71 -65 -90 -35 -110 15
-9 26 -2 68 39 48 47 125 156 164 233 14 26 15 37 5 48 -19 23 -54 17 -70 -13z"/>
<path d="M2187 1412 c-11 -12 -13 -22 -6 -35 14 -24 199 -25 224 -1 15 15 15
18 -1 35 -24 27 -193 28 -217 1z"/>
<path d="M2214 1250 c-40 -16 -61 -56 -73 -142 -26 -178 -49 -223 -197 -385
-127 -139 -146 -170 -164 -260 -23 -116 26 -284 101 -347 86 -73 176 -95 372
-93 135 2 157 5 197 24 92 46 163 144 203 281 18 64 22 100 21 217 -1 150 -15
239 -60 371 -37 113 -108 243 -162 297 l-46 47 -86 -1 c-47 0 -95 -4 -106 -9z
m201 -111 c38 -43 110 -185 138 -274 65 -204 64 -451 -2 -601 -25 -55 -96
-131 -139 -150 -47 -19 -287 -19 -362 1 -125 33 -189 117 -198 261 -4 76 -2
88 22 138 16 34 66 96 130 163 155 164 200 256 211 436 4 58 18 67 95 67 67 0
68 -1 105 -41z"/>
<path d="M2062 587 c-85 -88 -102 -124 -102 -210 0 -108 56 -163 178 -174 64
-6 86 7 80 49 -2 18 -10 24 -38 26 -63 4 -116 23 -130 45 -33 54 -5 140 70
212 l29 27 153 2 c177 1 201 8 196 59 -3 31 -4 32 -43 27 -67 -7 -248 -6 -285
3 -34 8 -37 6 -108 -66z"/>
</g>
</svg>
